<mxfile host="app.diagrams.net" agent="Mozilla/5.0 (Windows NT 10.0; Win64; x64) AppleWebKit/537.36 (KHTML, like Gecko) Chrome/127.0.0.0 Safari/537.36" version="24.7.7">
  <diagram name="PÃ¡gina-1" id="YxG6aqFPAaeFV0GtLodd">
    <mxGraphModel dx="1434" dy="752" grid="1" gridSize="10" guides="1" tooltips="1" connect="1" arrows="1" fold="1" page="1" pageScale="1" pageWidth="827" pageHeight="1169" math="0" shadow="0">
      <root>
        <mxCell id="0" />
        <mxCell id="1" parent="0" />
        <mxCell id="b8rluCNeTwZe7lozpSry-66" style="edgeStyle=orthogonalEdgeStyle;rounded=0;orthogonalLoop=1;jettySize=auto;html=1;exitX=0.995;exitY=0.63;exitDx=0;exitDy=0;exitPerimeter=0;entryX=0;entryY=0.5;entryDx=0;entryDy=0;" edge="1" parent="1" source="b8rluCNeTwZe7lozpSry-3" target="b8rluCNeTwZe7lozpSry-58">
          <mxGeometry relative="1" as="geometry" />
        </mxCell>
        <mxCell id="b8rluCNeTwZe7lozpSry-3" value="PRODUCER" style="aspect=fixed;sketch=0;html=1;dashed=0;whitespace=wrap;verticalLabelPosition=bottom;verticalAlign=top;fillColor=#2875E2;strokeColor=#ffffff;points=[[0.005,0.63,0],[0.1,0.2,0],[0.9,0.2,0],[0.5,0,0],[0.995,0.63,0],[0.72,0.99,0],[0.5,1,0],[0.28,0.99,0]];shape=mxgraph.kubernetes.icon2;prIcon=api" vertex="1" parent="1">
          <mxGeometry x="30" y="370" width="50" height="48" as="geometry" />
        </mxCell>
        <mxCell id="b8rluCNeTwZe7lozpSry-9" value="" style="group" vertex="1" connectable="0" parent="1">
          <mxGeometry x="20" y="338" width="280" height="140" as="geometry" />
        </mxCell>
        <mxCell id="b8rluCNeTwZe7lozpSry-2" value="Message" style="shape=message;html=1;html=1;outlineConnect=0;labelPosition=center;verticalLabelPosition=bottom;align=center;verticalAlign=top;" vertex="1" parent="b8rluCNeTwZe7lozpSry-9">
          <mxGeometry x="90" y="14" width="30" height="20" as="geometry" />
        </mxCell>
        <mxCell id="b8rluCNeTwZe7lozpSry-68" value="" style="group" vertex="1" connectable="0" parent="b8rluCNeTwZe7lozpSry-9">
          <mxGeometry x="160" y="34" width="130" height="106" as="geometry" />
        </mxCell>
        <mxCell id="b8rluCNeTwZe7lozpSry-58" value="Exchange" style="strokeWidth=2;dashed=0;align=center;fontSize=14;shape=rect;fillColor=#c0f5a9;strokeColor=#000000;" vertex="1" parent="b8rluCNeTwZe7lozpSry-68">
          <mxGeometry x="-10" width="90" height="46" as="geometry" />
        </mxCell>
        <mxCell id="b8rluCNeTwZe7lozpSry-59" value="" style="edgeStyle=none;endArrow=none;dashed=0;html=1;strokeWidth=2;rounded=0;entryX=0;entryY=0.5;entryDx=0;entryDy=0;exitX=1;exitY=0;exitDx=0;exitDy=0;" edge="1" source="b8rluCNeTwZe7lozpSry-58" target="b8rluCNeTwZe7lozpSry-75" parent="1">
          <mxGeometry relative="1" as="geometry">
            <mxPoint x="334" y="267.5" as="targetPoint" />
          </mxGeometry>
        </mxCell>
        <mxCell id="b8rluCNeTwZe7lozpSry-79" value="shop.user.registered" style="edgeLabel;html=1;align=center;verticalAlign=middle;resizable=0;points=[];rotation=-45;fontSize=17;" vertex="1" connectable="0" parent="b8rluCNeTwZe7lozpSry-59">
          <mxGeometry x="0.2411" relative="1" as="geometry">
            <mxPoint x="-27" y="6" as="offset" />
          </mxGeometry>
        </mxCell>
        <mxCell id="b8rluCNeTwZe7lozpSry-60" value="" style="edgeStyle=none;endArrow=none;dashed=0;html=1;strokeWidth=2;rounded=0;entryX=0;entryY=0.5;entryDx=0;entryDy=0;" edge="1" source="b8rluCNeTwZe7lozpSry-58" target="b8rluCNeTwZe7lozpSry-76" parent="1">
          <mxGeometry relative="1" as="geometry">
            <mxPoint x="336" y="334.95833333333326" as="targetPoint" />
          </mxGeometry>
        </mxCell>
        <mxCell id="b8rluCNeTwZe7lozpSry-61" value="" style="edgeStyle=none;endArrow=none;dashed=0;html=1;strokeWidth=2;rounded=0;exitX=1;exitY=1;exitDx=0;exitDy=0;entryX=0;entryY=0.5;entryDx=0;entryDy=0;" edge="1" source="b8rluCNeTwZe7lozpSry-58" target="b8rluCNeTwZe7lozpSry-77" parent="1">
          <mxGeometry relative="1" as="geometry">
            <mxPoint x="470" y="469" as="targetPoint" />
          </mxGeometry>
        </mxCell>
        <mxCell id="b8rluCNeTwZe7lozpSry-81" value="shop.user.*" style="edgeLabel;html=1;align=center;verticalAlign=middle;resizable=0;points=[];rotation=50;fontSize=17;" vertex="1" connectable="0" parent="1">
          <mxGeometry x="329.99719866531876" y="477.9991270680339" as="geometry">
            <mxPoint x="-5.575087508226474" y="1.7083323083103963" as="offset" />
          </mxGeometry>
        </mxCell>
        <mxCell id="b8rluCNeTwZe7lozpSry-83" value="" style="group" vertex="1" connectable="0" parent="1">
          <mxGeometry x="330" y="365" width="250" height="90" as="geometry" />
        </mxCell>
        <mxCell id="b8rluCNeTwZe7lozpSry-76" value="QUEUE CREATE USER" style="shape=process;whiteSpace=wrap;html=1;backgroundOutline=1;" vertex="1" parent="b8rluCNeTwZe7lozpSry-83">
          <mxGeometry x="65" width="120" height="60" as="geometry" />
        </mxCell>
        <mxCell id="b8rluCNeTwZe7lozpSry-82" value="&lt;span style=&quot;text-wrap: wrap;&quot;&gt;retention.create_user&lt;/span&gt;" style="text;html=1;align=center;verticalAlign=middle;resizable=0;points=[];autosize=1;strokeColor=none;fillColor=none;" vertex="1" parent="b8rluCNeTwZe7lozpSry-83">
          <mxGeometry x="55" y="60" width="140" height="30" as="geometry" />
        </mxCell>
        <mxCell id="b8rluCNeTwZe7lozpSry-80" value="shop.user.registered" style="edgeLabel;html=1;align=center;verticalAlign=middle;resizable=0;points=[];rotation=0;fontSize=14;" vertex="1" connectable="0" parent="b8rluCNeTwZe7lozpSry-83">
          <mxGeometry x="-0.002801334681237222" y="14.999127068033943" as="geometry">
            <mxPoint x="-3" y="-1" as="offset" />
          </mxGeometry>
        </mxCell>
        <mxCell id="b8rluCNeTwZe7lozpSry-86" value="" style="group" vertex="1" connectable="0" parent="1">
          <mxGeometry x="330" y="200" width="250" height="90" as="geometry" />
        </mxCell>
        <mxCell id="b8rluCNeTwZe7lozpSry-75" value="QUEUE WELCOME" style="shape=process;whiteSpace=wrap;html=1;backgroundOutline=1;" vertex="1" parent="b8rluCNeTwZe7lozpSry-86">
          <mxGeometry x="65" width="120" height="60" as="geometry" />
        </mxCell>
        <mxCell id="b8rluCNeTwZe7lozpSry-84" value="&lt;span style=&quot;text-wrap: wrap;&quot;&gt;retention.send_emaiil_welcome_new_user&lt;/span&gt;" style="text;html=1;align=center;verticalAlign=middle;resizable=0;points=[];autosize=1;strokeColor=none;fillColor=none;" vertex="1" parent="b8rluCNeTwZe7lozpSry-86">
          <mxGeometry x="20" y="60" width="250" height="30" as="geometry" />
        </mxCell>
        <mxCell id="b8rluCNeTwZe7lozpSry-87" value="" style="group" vertex="1" connectable="0" parent="1">
          <mxGeometry x="325" y="540" width="250" height="90" as="geometry" />
        </mxCell>
        <mxCell id="b8rluCNeTwZe7lozpSry-77" value="QUEUE SECURITY" style="shape=process;whiteSpace=wrap;html=1;backgroundOutline=1;" vertex="1" parent="b8rluCNeTwZe7lozpSry-87">
          <mxGeometry x="65" width="120" height="60" as="geometry" />
        </mxCell>
        <mxCell id="b8rluCNeTwZe7lozpSry-85" value="&lt;span style=&quot;text-wrap: wrap;&quot;&gt;security.update_last_user_activity&lt;/span&gt;" style="text;html=1;align=center;verticalAlign=middle;resizable=0;points=[];autosize=1;strokeColor=none;fillColor=none;" vertex="1" parent="b8rluCNeTwZe7lozpSry-87">
          <mxGeometry x="25" y="60" width="200" height="30" as="geometry" />
        </mxCell>
        <mxCell id="b8rluCNeTwZe7lozpSry-67" value="Nombre.Exchange&lt;div&gt;&lt;br&gt;&lt;/div&gt;&lt;div&gt;shop.domain_events&lt;/div&gt;" style="text;html=1;align=center;verticalAlign=middle;resizable=0;points=[];autosize=1;strokeColor=none;fillColor=none;" vertex="1" parent="1">
          <mxGeometry x="150" y="418" width="130" height="60" as="geometry" />
        </mxCell>
        <mxCell id="b8rluCNeTwZe7lozpSry-89" value="" style="image;aspect=fixed;perimeter=ellipsePerimeter;html=1;align=center;shadow=0;dashed=0;fontColor=#4277BB;labelBackgroundColor=default;fontSize=12;spacingTop=3;image=img/lib/ibm/blockchain/event_listener.svg;" vertex="1" parent="1">
          <mxGeometry x="700" y="365" width="60" height="60" as="geometry" />
        </mxCell>
        <mxCell id="b8rluCNeTwZe7lozpSry-90" value="" style="image;aspect=fixed;perimeter=ellipsePerimeter;html=1;align=center;shadow=0;dashed=0;fontColor=#4277BB;labelBackgroundColor=default;fontSize=12;spacingTop=3;image=img/lib/ibm/blockchain/event_listener.svg;" vertex="1" parent="1">
          <mxGeometry x="700" y="200" width="60" height="60" as="geometry" />
        </mxCell>
        <mxCell id="b8rluCNeTwZe7lozpSry-93" value="" style="swimlane;startSize=0;" vertex="1" parent="1">
          <mxGeometry x="660" y="505" width="130" height="160" as="geometry" />
        </mxCell>
        <mxCell id="b8rluCNeTwZe7lozpSry-91" value="" style="image;aspect=fixed;perimeter=ellipsePerimeter;html=1;align=center;shadow=0;dashed=0;fontColor=#4277BB;labelBackgroundColor=default;fontSize=12;spacingTop=3;image=img/lib/ibm/blockchain/event_listener.svg;" vertex="1" parent="b8rluCNeTwZe7lozpSry-93">
          <mxGeometry x="20" y="10" width="35" height="35" as="geometry" />
        </mxCell>
        <mxCell id="b8rluCNeTwZe7lozpSry-97" value="" style="image;aspect=fixed;perimeter=ellipsePerimeter;html=1;align=center;shadow=0;dashed=0;fontColor=#4277BB;labelBackgroundColor=default;fontSize=12;spacingTop=3;image=img/lib/ibm/blockchain/event_listener.svg;" vertex="1" parent="b8rluCNeTwZe7lozpSry-93">
          <mxGeometry x="20" y="115" width="35" height="35" as="geometry" />
        </mxCell>
        <mxCell id="b8rluCNeTwZe7lozpSry-96" value="" style="image;aspect=fixed;perimeter=ellipsePerimeter;html=1;align=center;shadow=0;dashed=0;fontColor=#4277BB;labelBackgroundColor=default;fontSize=12;spacingTop=3;image=img/lib/ibm/blockchain/event_listener.svg;" vertex="1" parent="b8rluCNeTwZe7lozpSry-93">
          <mxGeometry x="75" y="115" width="35" height="35" as="geometry" />
        </mxCell>
        <mxCell id="b8rluCNeTwZe7lozpSry-95" value="" style="image;aspect=fixed;perimeter=ellipsePerimeter;html=1;align=center;shadow=0;dashed=0;fontColor=#4277BB;labelBackgroundColor=default;fontSize=12;spacingTop=3;image=img/lib/ibm/blockchain/event_listener.svg;" vertex="1" parent="b8rluCNeTwZe7lozpSry-93">
          <mxGeometry x="75" y="65" width="35" height="35" as="geometry" />
        </mxCell>
        <mxCell id="b8rluCNeTwZe7lozpSry-94" value="" style="image;aspect=fixed;perimeter=ellipsePerimeter;html=1;align=center;shadow=0;dashed=0;fontColor=#4277BB;labelBackgroundColor=default;fontSize=12;spacingTop=3;image=img/lib/ibm/blockchain/event_listener.svg;" vertex="1" parent="b8rluCNeTwZe7lozpSry-93">
          <mxGeometry x="20" y="65" width="35" height="35" as="geometry" />
        </mxCell>
        <mxCell id="b8rluCNeTwZe7lozpSry-98" value="" style="image;aspect=fixed;perimeter=ellipsePerimeter;html=1;align=center;shadow=0;dashed=0;fontColor=#4277BB;labelBackgroundColor=default;fontSize=12;spacingTop=3;image=img/lib/ibm/blockchain/event_listener.svg;" vertex="1" parent="b8rluCNeTwZe7lozpSry-93">
          <mxGeometry x="75" y="10" width="35" height="35" as="geometry" />
        </mxCell>
        <mxCell id="b8rluCNeTwZe7lozpSry-99" style="edgeStyle=orthogonalEdgeStyle;rounded=0;orthogonalLoop=1;jettySize=auto;html=1;exitX=1;exitY=0.5;exitDx=0;exitDy=0;entryX=0.008;entryY=0.463;entryDx=0;entryDy=0;entryPerimeter=0;" edge="1" parent="1" source="b8rluCNeTwZe7lozpSry-77" target="b8rluCNeTwZe7lozpSry-93">
          <mxGeometry relative="1" as="geometry" />
        </mxCell>
        <mxCell id="b8rluCNeTwZe7lozpSry-100" style="edgeStyle=orthogonalEdgeStyle;rounded=0;orthogonalLoop=1;jettySize=auto;html=1;exitX=1;exitY=0.5;exitDx=0;exitDy=0;entryX=0;entryY=0.5;entryDx=0;entryDy=0;" edge="1" parent="1" source="b8rluCNeTwZe7lozpSry-76" target="b8rluCNeTwZe7lozpSry-89">
          <mxGeometry relative="1" as="geometry" />
        </mxCell>
        <mxCell id="b8rluCNeTwZe7lozpSry-101" style="edgeStyle=orthogonalEdgeStyle;rounded=0;orthogonalLoop=1;jettySize=auto;html=1;exitX=1;exitY=0.5;exitDx=0;exitDy=0;entryX=0;entryY=0.5;entryDx=0;entryDy=0;" edge="1" parent="1" source="b8rluCNeTwZe7lozpSry-75" target="b8rluCNeTwZe7lozpSry-90">
          <mxGeometry relative="1" as="geometry" />
        </mxCell>
        <mxCell id="b8rluCNeTwZe7lozpSry-102" value="" style="group" vertex="1" connectable="0" parent="1">
          <mxGeometry y="140" width="160" height="80" as="geometry" />
        </mxCell>
        <mxCell id="b8rluCNeTwZe7lozpSry-17" value="" style="shape=image;verticalLabelPosition=bottom;labelBackgroundColor=default;verticalAlign=top;aspect=fixed;imageAspect=0;image=https://www.ibm.com/content/dam/adobe-cms/instana/media_logo/Rabbit.png/_jcr_content/renditions/cq5dam.web.1280.1280.png;" vertex="1" parent="b8rluCNeTwZe7lozpSry-102">
          <mxGeometry width="106.05" height="80" as="geometry" />
        </mxCell>
        <mxCell id="b8rluCNeTwZe7lozpSry-18" value="&lt;font style=&quot;font-size: 15px;&quot;&gt;RabbitMQ&lt;/font&gt;" style="text;html=1;align=center;verticalAlign=middle;resizable=0;points=[];autosize=1;strokeColor=none;fillColor=none;" vertex="1" parent="b8rluCNeTwZe7lozpSry-102">
          <mxGeometry x="70" y="25" width="90" height="30" as="geometry" />
        </mxCell>
      </root>
    </mxGraphModel>
  </diagram>
</mxfile>
